<svg id="Layer_1" data-name="Layer 1" xmlns="http://www.w3.org/2000/svg" viewBox="0 0 296.45 296.5"><defs><style>.cls-1{fill:none;stroke:#fcee25;stroke-linecap:round;stroke-miterlimit:10;stroke-width:30px;}.cls-2{fill:#fffeff;}</style></defs><rect x="4.98" y="5" width="286.5" height="286.5" rx="143.25"/><path class="cls-1" d="M588.94,295.59a133.25,133.25,0,1,1-41-99.85" transform="translate(-307.49 -143.69)"/><path class="cls-2" d="M396.58,302l5.69-6.11a9.36,9.36,0,0,0,6.08,2.64c4.3,0,7.46-3,7.46-12.11,0-9.47-3.1-11.39-5.57-11.39-2.27,0-4.3,1.26-4.3,5.28,0,3.65,2.15,4.55,4.43,4.55,1.9,0,3.86-1,5.31-3.59l.51,6.47a10.82,10.82,0,0,1-8,4.31c-6.83,0-12.14-3.59-12.14-11.74s6.32-12.95,13.91-12.95,15.69,5.28,15.69,19.06-8,20.38-16.58,20.38A17.89,17.89,0,0,1,396.58,302Z" transform="translate(-307.49 -143.69)"/><path class="cls-2" d="M430.35,286.87c0-13,6.08-19.54,14.93-19.54s14.93,6.59,14.93,19.54-6.08,19.9-14.93,19.9S430.35,299.88,430.35,286.87Zm19.61,0c0-10.07-2.15-11.63-4.68-11.63s-4.68,1.56-4.68,11.63,2.15,12,4.68,12S450,296.94,450,286.87Z" transform="translate(-307.49 -143.69)"/><path class="cls-2" d="M463.75,278.72c0-7.79,4.55-12.35,10.62-12.35S485,270.93,485,278.72s-4.56,12.47-10.63,12.47S463.75,286.51,463.75,278.72Zm13.79,0c0-5.28-1.52-6.71-3.17-6.71s-3.16,1.43-3.16,6.71,1.52,6.83,3.16,6.83S477.54,284,477.54,278.72Zm20.36-12.35H504l-22,40.4h-6.07Zm-3.16,27.93c0-7.79,4.55-12.34,10.62-12.34S516,286.51,516,294.3s-4.55,12.47-10.63,12.47S494.74,302.09,494.74,294.3Zm13.79,0c0-5.27-1.52-6.71-3.17-6.71s-3.16,1.44-3.16,6.71,1.52,6.83,3.16,6.83S508.53,299.58,508.53,294.3Z" transform="translate(-307.49 -143.69)"/></svg>