<svg id="Layer_1" data-name="Layer 1" xmlns="http://www.w3.org/2000/svg" viewBox="0 0 306.45 306.5"><defs><style>.cls-1{fill:none;stroke:#fcee25;stroke-linecap:round;stroke-miterlimit:10;stroke-width:40px;}.cls-2{fill:#fffeff;}</style></defs><rect x="9.98" y="10" width="286.5" height="286.5" rx="143.25"/><path class="cls-1" d="M588.94,295.59a133.25,133.25,0,1,1-41-99.85" transform="translate(-302.49 -138.69)"/><path class="cls-2" d="M409.16,302.69l5.7-6.11a9.32,9.32,0,0,0,6.07,2.64c4.3,0,7.46-3,7.46-12.11,0-9.47-3.1-11.39-5.57-11.39-2.27,0-4.3,1.26-4.3,5.28,0,3.65,2.15,4.55,4.43,4.55,1.9,0,3.86-1,5.31-3.59l.51,6.47a10.82,10.82,0,0,1-8,4.31c-6.83,0-12.14-3.59-12.14-11.74s6.32-12.95,13.91-12.95,15.69,5.27,15.69,19.06-8,20.38-16.57,20.38A17.9,17.9,0,0,1,409.16,302.69Z" transform="translate(-302.49 -138.69)"/><path class="cls-2" d="M442.18,302.09l4.8-6.47c2.41,2,5.19,3.6,8.1,3.6,3.79,0,5.94-1.56,5.94-4.92s-2.27-4.91-5.44-4.91c-2.15,0-3.16.36-5.56,1.8l-4.68-2.88,1-19.54h23.78v8.63H455.71l-.5,5.51a10.64,10.64,0,0,1,3.79-.6c7,0,12.9,3.72,12.9,11.75,0,8.51-7,13.43-15.18,13.43C450.14,307.49,445.46,305.21,442.18,302.09Z" transform="translate(-302.49 -138.69)"/><path class="cls-2" d="M476.33,279.44c0-7.79,4.55-12.35,10.62-12.35s10.63,4.56,10.63,12.35S493,291.9,487,291.9,476.33,287.23,476.33,279.44Zm13.79,0c0-5.28-1.52-6.72-3.17-6.72s-3.16,1.44-3.16,6.72,1.52,6.83,3.16,6.83S490.12,284.71,490.12,279.44Zm20.36-12.35h6.07l-22,40.4h-6.07ZM507.32,295c0-7.79,4.55-12.35,10.62-12.35s10.63,4.56,10.63,12.35-4.55,12.47-10.63,12.47S507.32,302.81,507.32,295Zm13.79,0c0-5.27-1.52-6.71-3.17-6.71s-3.16,1.44-3.16,6.71,1.52,6.83,3.16,6.83S521.11,300.29,521.11,295Z" transform="translate(-302.49 -138.69)"/></svg>