<svg id="Layer_1" data-name="Layer 1" xmlns="http://www.w3.org/2000/svg" viewBox="0 0 306.45 306.5"><defs><style>.cls-1{fill:none;stroke:#fcee25;stroke-linecap:round;stroke-miterlimit:10;stroke-width:40px;}.cls-2{fill:#fffeff;}</style></defs><rect x="9.98" y="10" width="286.5" height="286.5" rx="143.25"/><path class="cls-1" d="M588.94,295.59a133.25,133.25,0,1,1-41-99.85" transform="translate(-302.49 -138.69)"/><path class="cls-2" d="M409.29,297.06c0-4.44,2.78-7.07,6.58-9v-.24c-3.16-2.28-5.32-5-5.32-9,0-6.72,5.57-10.79,13.41-10.79,7.47,0,12.53,4.07,12.53,10.55,0,3.47-2.28,6.23-5.13,8v.24c3.92,2,6.9,5,6.9,10,0,6.11-5.88,10.67-14.68,10.67C415.42,307.49,409.29,303.29,409.29,297.06Zm18.91-.6c0-2.76-2.78-3.84-7.53-5.75a7.92,7.92,0,0,0-2.08,5.15c0,3,2.46,4.56,5.25,4.56C426.24,300.42,428.2,299.34,428.2,296.46Zm-.44-17.14c0-2.64-1.52-4.2-4.05-4.2a3.4,3.4,0,0,0-3.67,3.72c0,2.52,2.15,3.83,5.95,5.27A8.09,8.09,0,0,0,427.76,279.32Z" transform="translate(-302.49 -138.69)"/><path class="cls-2" d="M442.93,287.59c0-13,6.08-19.54,14.93-19.54s14.93,6.59,14.93,19.54-6.07,19.9-14.93,19.9S442.93,300.59,442.93,287.59Zm19.61,0c0-10.07-2.15-11.63-4.68-11.63s-4.68,1.56-4.68,11.63,2.15,12,4.68,12S462.54,297.66,462.54,287.59Z" transform="translate(-302.49 -138.69)"/><path class="cls-2" d="M476.33,279.44c0-7.79,4.55-12.35,10.62-12.35s10.63,4.56,10.63,12.35S493,291.9,487,291.9,476.33,287.23,476.33,279.44Zm13.79,0c0-5.28-1.52-6.72-3.17-6.72s-3.16,1.44-3.16,6.72,1.52,6.83,3.16,6.83S490.12,284.71,490.12,279.44Zm20.36-12.35h6.07l-22,40.4h-6.07ZM507.32,295c0-7.79,4.55-12.35,10.62-12.35s10.63,4.56,10.63,12.35-4.55,12.47-10.63,12.47S507.32,302.81,507.32,295Zm13.79,0c0-5.27-1.52-6.71-3.17-6.71s-3.16,1.44-3.16,6.71,1.52,6.83,3.16,6.83S521.11,300.29,521.11,295Z" transform="translate(-302.49 -138.69)"/></svg>