<svg id="Layer_1" data-name="Layer 1" xmlns="http://www.w3.org/2000/svg" viewBox="0 0 296.45 296.5"><defs><style>.cls-1{fill:none;stroke:#fcee25;stroke-linecap:round;stroke-miterlimit:10;stroke-width:30px;}.cls-2{fill:#fffeff;}</style></defs><rect x="4.98" y="5" width="286.5" height="286.5" rx="143.25"/><path class="cls-1" d="M588.94,295.59a133.25,133.25,0,1,1-41-99.85" transform="translate(-307.49 -143.69)"/><path class="cls-2" d="M396.71,296.34c0-4.44,2.78-7.07,6.58-9v-.24c-3.17-2.28-5.32-5-5.32-9,0-6.71,5.57-10.79,13.41-10.79,7.46,0,12.52,4.08,12.52,10.55,0,3.48-2.27,6.23-5.12,8v.24c3.92,2,6.9,5,6.9,10,0,6.11-5.89,10.67-14.68,10.67C402.84,306.77,396.71,302.57,396.71,296.34Zm18.91-.6c0-2.76-2.78-3.84-7.53-5.75a7.94,7.94,0,0,0-2.08,5.15c0,3,2.46,4.56,5.24,4.56C413.66,299.7,415.62,298.62,415.62,295.74Zm-.44-17.14c0-2.64-1.52-4.2-4.05-4.2a3.4,3.4,0,0,0-3.67,3.72c0,2.52,2.15,3.84,6,5.27A8.06,8.06,0,0,0,415.18,278.6Z" transform="translate(-307.49 -143.69)"/><path class="cls-2" d="M430.35,286.87c0-13,6.08-19.54,14.93-19.54s14.93,6.59,14.93,19.54-6.08,19.9-14.93,19.9S430.35,299.88,430.35,286.87Zm19.61,0c0-10.07-2.15-11.63-4.68-11.63s-4.68,1.56-4.68,11.63,2.15,12,4.68,12S450,296.94,450,286.87Z" transform="translate(-307.49 -143.69)"/><path class="cls-2" d="M463.75,278.72c0-7.79,4.55-12.35,10.62-12.35S485,270.93,485,278.72s-4.56,12.47-10.63,12.47S463.75,286.51,463.75,278.72Zm13.79,0c0-5.28-1.52-6.71-3.17-6.71s-3.16,1.43-3.16,6.71,1.52,6.83,3.16,6.83S477.54,284,477.54,278.72Zm20.36-12.35H504l-22,40.4h-6.07Zm-3.16,27.93c0-7.79,4.55-12.34,10.62-12.34S516,286.51,516,294.3s-4.55,12.47-10.63,12.47S494.74,302.09,494.74,294.3Zm13.79,0c0-5.27-1.52-6.71-3.17-6.71s-3.16,1.44-3.16,6.71,1.52,6.83,3.16,6.83S508.53,299.58,508.53,294.3Z" transform="translate(-307.49 -143.69)"/></svg>